<svg xmlns="http://www.w3.org/2000/svg" width="40" height="40" viewBox="-4 -4 32 32" fill="none" stroke="white" stroke-width="1.5" stroke-linecap="round" stroke-linejoin="round">
  <circle cx="12" cy="12" r="16" fill="#E8A6A1" stroke="none" />
  <g fill="none">
    <path d="M16 10a4 4 0 0 1-8 0" />
    <path d="M3.103 6.034h17.794" />
    <path
      d="M3.4 5.467a2 2 0 0 0-.4 1.2V20a2 2 0 0 0 2 2h14a2 2 0 0 0 2-2V6.667a2 2 0 0 0-.4-1.2l-2-2.667A2 2 0 0 0 17 2H7a2 2 0 0 0-1.6.8z" />
  </g>
</svg>